<mxfile host="app.diagrams.net" modified="2024-01-19T04:08:39.640Z" agent="Mozilla/5.0 (Windows NT 10.0; Win64; x64) AppleWebKit/537.36 (KHTML, like Gecko) Chrome/120.0.0.0 Safari/537.36" version="22.1.21" etag="HMIB3t6oYm502Mg_Fo_S" type="device">
  <diagram id="6c-DV-12LeQ6ZWD8AVIq" name="Page-1">
    <mxGraphModel dx="1434" dy="797" grid="1" gridSize="10" guides="1" tooltips="1" connect="0" arrows="1" fold="1" page="1" pageScale="1" pageWidth="850" pageHeight="1100" math="0" shadow="0">
      <root>
        <mxCell id="0" />
        <mxCell id="1" parent="0" />
        <mxCell id="SBE4lVdYl03BDYWzgO6E-15" value="" style="group;movable=1;resizable=1;rotatable=1;deletable=1;editable=1;locked=0;connectable=1;" vertex="1" connectable="0" parent="1">
          <mxGeometry x="200" y="80" width="450" height="450" as="geometry" />
        </mxCell>
        <mxCell id="SBE4lVdYl03BDYWzgO6E-1" value="" style="whiteSpace=wrap;html=1;aspect=fixed;fillColor=#182E3E;strokeColor=#FFFFFF;fontStyle=1;labelBackgroundColor=none;fontColor=#FFFFFF;movable=1;resizable=1;rotatable=1;deletable=1;editable=1;locked=0;connectable=1;" vertex="1" parent="SBE4lVdYl03BDYWzgO6E-15">
          <mxGeometry width="450" height="450" as="geometry" />
        </mxCell>
        <mxCell id="SBE4lVdYl03BDYWzgO6E-2" value="&lt;h2&gt;&lt;b&gt;&lt;font face=&quot;Comic Sans MS&quot;&gt;TravelController&lt;/font&gt;&lt;/b&gt;&lt;/h2&gt;" style="text;strokeColor=none;align=left;fillColor=none;html=1;verticalAlign=middle;whiteSpace=wrap;rounded=0;fontColor=#FFFFFF;labelBackgroundColor=none;movable=1;resizable=1;rotatable=1;deletable=1;editable=1;locked=0;connectable=1;" vertex="1" parent="SBE4lVdYl03BDYWzgO6E-15">
          <mxGeometry x="10" width="170" height="30" as="geometry" />
        </mxCell>
        <mxCell id="SBE4lVdYl03BDYWzgO6E-3" value="" style="rounded=0;whiteSpace=wrap;html=1;strokeColor=#353746;fontColor=#ffffff;fillColor=#9999FF;movable=1;resizable=1;rotatable=1;deletable=1;editable=1;locked=0;connectable=1;" vertex="1" parent="SBE4lVdYl03BDYWzgO6E-15">
          <mxGeometry x="30" y="40" width="390" height="370" as="geometry" />
        </mxCell>
        <mxCell id="SBE4lVdYl03BDYWzgO6E-4" value="&lt;b&gt;&lt;font style=&quot;font-size: 16px;&quot; face=&quot;Comic Sans MS&quot;&gt;TravelService&lt;/font&gt;&lt;/b&gt;" style="text;strokeColor=none;align=center;fillColor=none;html=1;verticalAlign=middle;whiteSpace=wrap;rounded=0;fontColor=#FFFFFF;movable=1;resizable=1;rotatable=1;deletable=1;editable=1;locked=0;connectable=1;" vertex="1" parent="SBE4lVdYl03BDYWzgO6E-15">
          <mxGeometry x="30" y="40" width="130" height="30" as="geometry" />
        </mxCell>
        <mxCell id="SBE4lVdYl03BDYWzgO6E-5" value="" style="rounded=0;whiteSpace=wrap;html=1;strokeColor=#FFFFFF;fontColor=#FFFFFF;fillColor=#e66c56;container=0;movable=1;resizable=1;rotatable=1;deletable=1;editable=1;locked=0;connectable=1;" vertex="1" parent="SBE4lVdYl03BDYWzgO6E-15">
          <mxGeometry x="50" y="70" width="350" height="320" as="geometry" />
        </mxCell>
        <mxCell id="SBE4lVdYl03BDYWzgO6E-6" value="&lt;b&gt;&lt;font face=&quot;Comic Sans MS&quot;&gt;TravelServiceImpl&lt;/font&gt;&lt;/b&gt;" style="text;strokeColor=none;align=center;fillColor=none;html=1;verticalAlign=middle;whiteSpace=wrap;rounded=0;fontColor=#FFFFFF;movable=1;resizable=1;rotatable=1;deletable=1;editable=1;locked=0;connectable=1;" vertex="1" parent="SBE4lVdYl03BDYWzgO6E-15">
          <mxGeometry x="40" y="70" width="140" height="30" as="geometry" />
        </mxCell>
        <mxCell id="SBE4lVdYl03BDYWzgO6E-8" value="" style="rounded=0;whiteSpace=wrap;html=1;strokeColor=#FFFFFF;fontColor=#FFFFFF;fillColor=#2c99e8;labelBorderColor=default;labelBackgroundColor=default;movable=1;resizable=1;rotatable=1;deletable=1;editable=1;locked=0;connectable=1;" vertex="1" parent="SBE4lVdYl03BDYWzgO6E-15">
          <mxGeometry x="73" y="102.5" width="305" height="255" as="geometry" />
        </mxCell>
        <mxCell id="SBE4lVdYl03BDYWzgO6E-9" value="Repository Layer" style="text;strokeColor=none;align=center;fillColor=none;html=1;verticalAlign=middle;whiteSpace=wrap;rounded=0;fontColor=#FFFFFF;fontStyle=1;fontFamily=Comic Sans MS;movable=1;resizable=1;rotatable=1;deletable=1;editable=1;locked=0;connectable=1;" vertex="1" parent="SBE4lVdYl03BDYWzgO6E-15">
          <mxGeometry x="70" y="100" width="120" height="30" as="geometry" />
        </mxCell>
        <mxCell id="SBE4lVdYl03BDYWzgO6E-10" value="" style="rounded=1;whiteSpace=wrap;html=1;strokeColor=#FFFFFF;fontColor=#FFFFFF;fillColor=#182E3E;movable=1;resizable=1;rotatable=1;deletable=1;editable=1;locked=0;connectable=1;" vertex="1" parent="SBE4lVdYl03BDYWzgO6E-15">
          <mxGeometry x="90" y="200" width="120" height="60" as="geometry" />
        </mxCell>
        <mxCell id="SBE4lVdYl03BDYWzgO6E-11" value="" style="rounded=1;whiteSpace=wrap;html=1;strokeColor=#FFFFFF;fontColor=#FFFFFF;fillColor=#182E3E;movable=1;resizable=1;rotatable=1;deletable=1;editable=1;locked=0;connectable=1;" vertex="1" parent="SBE4lVdYl03BDYWzgO6E-15">
          <mxGeometry x="240" y="200" width="120" height="60" as="geometry" />
        </mxCell>
        <mxCell id="SBE4lVdYl03BDYWzgO6E-12" value="&lt;b&gt;&lt;font face=&quot;Comic Sans MS&quot;&gt;Entity Layer&lt;/font&gt;&lt;/b&gt;" style="text;strokeColor=none;align=center;fillColor=none;html=1;verticalAlign=middle;whiteSpace=wrap;rounded=0;fontColor=#FFFFFF;movable=1;resizable=1;rotatable=1;deletable=1;editable=1;locked=0;connectable=1;" vertex="1" parent="SBE4lVdYl03BDYWzgO6E-15">
          <mxGeometry x="90" y="210" width="120" height="30" as="geometry" />
        </mxCell>
        <mxCell id="SBE4lVdYl03BDYWzgO6E-13" value="&lt;b&gt;&lt;font face=&quot;Times New Roman&quot;&gt;DTO&#39;s&lt;/font&gt;&lt;/b&gt;" style="text;strokeColor=none;align=center;fillColor=none;html=1;verticalAlign=middle;whiteSpace=wrap;rounded=0;fontColor=#FFFFFF;movable=1;resizable=1;rotatable=1;deletable=1;editable=1;locked=0;connectable=1;" vertex="1" parent="SBE4lVdYl03BDYWzgO6E-15">
          <mxGeometry x="270" y="210" width="60" height="30" as="geometry" />
        </mxCell>
      </root>
    </mxGraphModel>
  </diagram>
</mxfile>
